<svg version="1.1" id="Layer_1" xmlns="http://www.w3.org/2000/svg" xmlns:xlink="http://www.w3.org/1999/xlink" x="0px" y="0px"
	 width="100%" viewBox="0 0 533 139" enable-background="new 0 0 533 139" xml:space="preserve">
<path fill="#FEFEFE" opacity="1.000000" stroke="none" 
	d="
M349.000000,140.000000 
	C232.666672,140.000000 116.833336,140.000000 1.000000,140.000000 
	C1.000000,93.666664 1.000000,47.333332 1.000000,1.000000 
	C178.666672,1.000000 356.333344,1.000000 534.000000,1.000000 
	C534.000000,47.333332 534.000000,93.666664 534.000000,140.000000 
	C472.500000,140.000000 411.000000,140.000000 349.000000,140.000000 
M251.912064,50.119621 
	C251.912064,48.538445 251.912064,46.957272 251.912064,45.379066 
	C243.400909,45.379066 235.431442,45.379066 226.999298,45.379066 
	C227.269882,50.524483 227.519104,55.263592 227.436432,60.849506 
	C227.422150,63.899815 227.407867,66.950127 227.191315,70.916275 
	C227.173477,78.273483 227.155640,85.630699 226.980026,93.897224 
	C226.980026,96.497154 226.980026,99.097076 226.980026,101.728096 
	C235.586304,101.728096 243.618546,101.728096 252.265198,101.728096 
	C251.857132,94.872124 251.474274,88.439705 251.224426,81.085808 
	C251.582520,75.630783 251.406723,70.071556 252.445389,64.749352 
	C253.534393,59.169174 260.316956,56.719707 264.040161,60.273487 
	C265.847595,61.998669 266.692352,64.732407 267.908264,67.907143 
	C268.047241,70.601723 268.186188,73.296310 268.137909,76.911034 
	C268.131622,83.270134 268.125336,89.629234 267.970428,96.877258 
	C267.970428,98.469635 267.970428,100.062012 267.970428,101.688889 
	C276.614044,101.688889 284.733490,101.688889 292.580353,101.688889 
	C292.580353,95.142754 292.580353,89.054077 292.759460,82.054108 
	C292.574127,76.681091 292.388794,71.308083 292.303619,65.076248 
	C291.845978,62.049698 291.388367,59.023148 290.980530,55.270439 
	C288.034576,47.611210 282.405426,43.622551 274.274628,43.039829 
	C265.027496,42.377102 257.420502,45.368038 251.965454,52.354946 
	C251.891281,51.900135 251.817108,51.445324 251.912064,50.119621 
M195.850815,103.960236 
	C203.651993,103.502235 211.189926,102.145798 218.371048,97.578735 
	C216.909607,93.879509 215.538528,90.408958 214.065826,86.149223 
	C212.575851,86.078552 210.908127,85.534775 209.625687,86.016548 
	C202.951889,88.523712 196.377670,91.302284 188.677261,88.323318 
	C185.942215,85.919922 184.046768,83.216080 185.328522,79.202942 
	C190.376541,79.202942 195.405518,79.862709 200.197525,79.077065 
	C213.629547,76.874916 219.770493,65.343452 214.011520,53.287827 
	C213.651993,52.908470 213.292450,52.529114 212.786957,51.567211 
	C212.215836,51.034340 211.644730,50.501469 210.804626,49.334332 
	C198.094620,39.225681 175.831161,40.964367 165.648758,53.246349 
	C158.668350,61.666126 158.331543,71.704437 160.173157,82.729660 
	C162.338318,90.367264 165.573242,97.173920 174.241333,100.692879 
	C180.844116,103.814438 187.808075,104.551727 195.850815,103.960236 
M311.888977,96.415192 
	C315.220001,98.398735 318.551056,100.382278 322.521912,102.776901 
	C333.731567,106.149002 342.561371,103.113152 348.727417,92.116814 
	C348.907593,94.347595 349.014435,95.670105 348.993073,97.866966 
	C349.680176,99.273079 350.319885,101.871719 351.061676,101.901184 
	C358.636444,102.202087 366.227814,102.085312 374.158966,102.085312 
	C373.523560,95.497040 372.967743,89.734138 372.651123,83.099548 
	C372.445190,79.067131 372.239258,75.034706 372.151093,70.091530 
	C372.091187,66.727013 372.031281,63.362492 372.101959,59.110775 
	C372.250519,53.394367 372.399048,47.677963 372.752228,41.051991 
	C372.752228,31.841900 372.752228,22.631807 372.752228,13.452292 
	C364.169342,13.452292 355.445801,13.452292 346.461426,13.452292 
	C347.031311,25.846622 347.586334,37.917404 348.009674,50.610237 
	C347.987823,51.033463 347.965942,51.456688 347.274719,51.856789 
	C346.772888,51.449978 346.127533,51.137211 345.790375,50.622536 
	C338.531342,39.542164 317.639984,40.194748 309.233795,53.827503 
	C304.272827,61.872917 302.674713,70.679825 304.811584,80.843086 
	C305.440979,86.603951 307.240356,91.831024 311.888977,96.415192 
M409.675812,57.458542 
	C402.380371,49.689651 393.428375,45.138573 382.689301,43.067150 
	C381.547333,48.423706 380.549255,53.255325 379.483521,58.071980 
	C377.490265,67.080528 377.471985,67.081215 385.557159,70.788231 
	C386.602600,71.267563 387.680908,71.675240 389.159515,72.663597 
	C392.823578,77.103943 396.487671,81.544296 400.153503,86.804161 
	C403.429718,100.494225 396.216766,112.973778 381.918854,117.070648 
	C374.504761,119.195053 366.729828,120.060005 359.079315,121.501198 
	C359.039368,122.057846 358.856537,122.590614 358.993561,123.021729 
	C359.897614,125.866280 361.212311,128.626892 361.740082,131.533447 
	C362.516357,135.808853 365.087097,136.111649 368.622894,135.715164 
	C390.879761,133.219391 409.296265,123.747009 422.664795,105.541969 
	C431.108795,94.043114 437.462830,81.500259 439.289978,66.251968 
	C440.256500,59.315094 441.223022,52.378223 442.210175,45.293194 
	C435.468811,45.293194 429.888641,45.293194 423.397552,45.293194 
	C423.397552,54.013050 423.397552,62.441807 423.096558,71.538605 
	C422.441162,74.541985 421.785797,77.545372 420.928406,81.474571 
	C419.980011,79.565880 419.572601,78.745964 419.136383,77.099136 
	C418.361725,69.656822 415.620789,63.164993 409.675812,57.458542 
M445.130920,32.487324 
	C445.146820,32.664570 445.162689,32.841816 445.036835,33.900288 
	C444.713593,38.062840 444.390320,42.225388 444.028229,46.888226 
	C446.363739,46.888226 448.140900,46.774109 449.898254,46.912319 
	C453.399506,47.187679 456.889801,47.601692 460.192169,48.869190 
	C460.461395,53.246201 460.730621,57.623211 460.906036,62.871937 
	C460.939362,64.915573 460.972687,66.959206 460.591370,69.686584 
	C460.683075,73.813690 460.774750,77.940804 460.778259,82.686172 
	C460.803009,83.100883 460.827759,83.515587 460.451721,84.547089 
	C460.493195,86.023811 460.534668,87.500526 460.324127,89.713326 
	C460.383698,90.480080 460.443237,91.246826 460.253998,92.785057 
	C460.324463,93.852295 460.394958,94.919533 460.292938,96.649277 
	C460.342957,97.099525 460.392944,97.549774 460.205292,98.822983 
	C460.852081,99.908394 461.470551,101.916641 462.149994,101.937477 
	C469.536560,102.164078 476.932648,102.079201 484.848053,102.079201 
	C484.848053,83.370010 484.848053,65.401199 484.848053,46.918331 
	C488.014008,46.918331 490.461823,46.919823 492.909637,46.918041 
	C499.681427,46.913120 499.681427,46.912582 499.994751,39.353676 
	C500.012207,38.911026 500.029663,38.468376 500.519379,37.408340 
	C500.899109,34.521465 501.278839,31.634594 501.748810,28.061563 
	C498.518555,28.357288 495.775757,28.608387 492.306732,28.628212 
	C489.015442,28.669641 485.723297,28.780148 482.433014,28.739899 
	C471.344086,28.604250 460.254608,28.465839 449.168060,28.210640 
	C446.385986,28.146599 444.511932,28.579268 445.130920,32.487324 
M60.005375,55.916092 
	C60.050728,67.607948 60.096085,79.299812 59.979149,91.909096 
	C59.979149,95.170929 59.979149,98.432762 59.979149,101.735756 
	C68.248070,101.735756 76.065735,101.735756 83.812386,101.735756 
	C83.812386,94.538071 83.812386,87.763557 83.937004,80.060776 
	C83.937004,69.082283 83.937004,58.103790 83.937004,46.684582 
	C89.590866,46.684582 94.146652,46.684582 98.912598,46.684582 
	C99.391899,42.164715 99.825523,38.075672 100.677010,33.156364 
	C100.742111,31.741367 100.807205,30.326368 100.879333,28.758650 
	C82.003700,28.758650 63.635216,28.758650 45.031616,28.758650 
	C44.446026,34.845779 43.892075,40.604008 43.278690,46.980064 
	C48.813339,46.980064 54.200729,46.980064 59.696377,46.980064 
	C59.872715,50.046352 60.014816,52.517269 60.005375,55.916092 
M131.106918,58.076542 
	C131.106918,53.833504 131.106918,49.590466 131.106918,45.353031 
	C123.147011,45.353031 115.800385,45.353031 108.406494,45.353031 
	C108.406494,54.143433 108.406494,62.566772 108.197830,71.906075 
	C108.171555,78.602089 108.145287,85.298096 107.940018,92.835663 
	C107.940018,95.773109 107.940018,98.710556 107.940018,101.742340 
	C116.156357,101.742340 124.330826,101.742340 131.855118,101.742340 
	C131.855118,94.546280 131.855118,87.769508 131.979340,80.104424 
	C131.987762,78.607903 131.952225,77.109612 132.012070,75.615150 
	C132.306091,68.271927 135.961212,65.044800 143.309647,66.071388 
	C146.360870,66.497650 149.303406,67.701950 152.624084,68.645882 
	C154.179718,60.384235 155.696991,52.326336 157.202957,44.328400 
	C145.394836,41.203007 139.148163,43.984570 134.011520,54.071129 
	C133.139069,55.784313 132.002075,57.362759 131.106918,58.076542 
z"/>
<path fill="#97A8B1" opacity="1.000000" stroke="none" 
	d="
M419.165222,77.926041 
	C419.572601,78.745964 419.980011,79.565880 420.928406,81.474571 
	C421.785797,77.545372 422.441162,74.541985 423.656067,71.218590 
	C429.261719,70.019493 432.694550,63.007397 439.023102,67.003342 
	C437.462830,81.500259 431.108795,94.043114 422.664795,105.541969 
	C409.296265,123.747009 390.879761,133.219391 368.622894,135.715164 
	C365.087097,136.111649 362.516357,135.808853 361.740082,131.533447 
	C361.212311,128.626892 359.897614,125.866280 358.993561,123.021729 
	C358.856537,122.590614 359.039368,122.057846 359.079315,121.501198 
	C366.729828,120.060005 374.504761,119.195053 381.918854,117.070648 
	C396.216766,112.973778 403.429718,100.494225 400.515625,86.391861 
	C406.973572,83.295052 413.069397,80.610542 419.165222,77.926041 
z"/>
<path fill="#6F6C74" opacity="1.000000" stroke="none" 
	d="
M108.119019,91.994110 
	C108.145287,85.298096 108.171555,78.602089 108.644424,71.437881 
	C110.172318,70.115540 111.288620,69.301826 112.329041,68.400497 
	C117.760063,63.695576 123.877159,60.367458 130.987289,59.003448 
	C132.002075,57.362759 133.139069,55.784313 134.011520,54.071129 
	C139.148163,43.984570 145.394836,41.203007 157.202957,44.328400 
	C155.696991,52.326336 154.179718,60.384235 152.624084,68.645882 
	C149.303406,67.701950 146.360870,66.497650 143.309647,66.071388 
	C135.961212,65.044800 132.306091,68.271927 132.012070,75.615150 
	C131.952225,77.109612 131.987762,78.607903 131.538086,80.551491 
	C128.925644,81.971809 126.729256,82.892944 124.588196,83.928482 
	C119.085381,86.589973 113.607109,89.302177 108.119019,91.994110 
z"/>
<path fill="#696169" opacity="1.000000" stroke="none" 
	d="
M60.141441,90.991669 
	C60.096085,79.299812 60.050728,67.607948 60.457260,55.456100 
	C61.999306,54.706974 63.209412,54.629128 64.157997,54.090614 
	C67.525703,52.178776 70.805855,50.112511 74.116066,48.099636 
	C77.462570,46.064693 80.717628,43.858532 84.170235,42.023724 
	C89.462341,39.211353 94.889374,36.652870 100.259140,33.986633 
	C99.825523,38.075672 99.391899,42.164715 98.912598,46.684582 
	C94.146652,46.684582 89.590866,46.684582 83.937004,46.684582 
	C83.937004,58.103790 83.937004,69.082283 83.513504,80.533806 
	C82.072212,81.459129 81.057693,81.918999 80.036064,82.362488 
	C73.405380,85.240868 66.773163,88.115685 60.141441,90.991669 
z"/>
<path fill="#7D828B" opacity="1.000000" stroke="none" 
	d="
M251.907379,53.045914 
	C257.420502,45.368038 265.027496,42.377102 274.274628,43.039829 
	C282.405426,43.622551 288.034576,47.611210 290.582062,55.585442 
	C283.537689,52.222252 274.884735,55.661854 271.787170,62.938652 
	C271.103088,64.545647 269.274506,65.665436 267.972931,67.009560 
	C266.692352,64.732407 265.847595,61.998669 264.040161,60.273487 
	C260.316956,56.719707 253.534393,59.169174 252.445389,64.749352 
	C251.406723,70.071556 251.582520,75.630783 250.776306,81.506790 
	C248.598602,81.801720 246.453812,80.954819 245.209641,81.671478 
	C239.054962,85.216667 233.138351,89.175148 227.137817,92.987915 
	C227.155640,85.630699 227.173477,78.273483 227.675232,70.455208 
	C232.241440,69.523277 235.450302,67.572327 239.010956,65.434074 
	C244.458084,62.162941 248.759857,58.386684 251.907379,53.045914 
z"/>
<path fill="#97A8B1" opacity="1.000000" stroke="none" 
	d="
M461.005981,69.002846 
	C460.972687,66.959206 460.939362,64.915573 461.332886,62.355217 
	C463.089691,57.142349 464.286011,53.513458 470.309875,51.437267 
	C482.291718,47.307590 481.895508,46.462273 482.029907,59.198627 
	C482.159393,71.467003 482.612274,83.732430 482.668671,96.000328 
	C482.673553,97.063232 480.918243,98.850281 479.739624,99.083527 
	C473.259583,100.365898 466.706451,101.237923 460.442932,98.000023 
	C460.392944,97.549774 460.342957,97.099525 460.666229,96.226868 
	C460.860596,94.540840 460.681702,93.277206 460.502808,92.013580 
	C460.443237,91.246826 460.383698,90.480080 460.744263,89.227959 
	C461.060455,87.138496 460.956482,85.534401 460.852478,83.930298 
	C460.827759,83.515587 460.803009,83.100883 461.141052,82.096138 
	C461.337921,77.338348 461.171967,73.170601 461.005981,69.002846 
z"/>
<path fill="#73727A" opacity="1.000000" stroke="none" 
	d="
M160.183777,81.987442 
	C158.331543,71.704437 158.668350,61.666126 165.648758,53.246349 
	C175.831161,40.964367 198.094620,39.225681 210.657043,49.838600 
	C208.018051,55.634819 202.451660,56.489376 197.737427,58.749977 
	C192.756531,55.668491 188.428802,56.582535 186.505875,61.312576 
	C185.284637,64.316574 184.976746,67.691895 183.852600,70.932343 
	C176.831543,73.216522 169.340027,73.455879 164.449066,79.654610 
	C163.525406,80.825226 161.630524,81.229538 160.183777,81.987442 
z"/>
<path fill="#787982" opacity="1.000000" stroke="none" 
	d="
M198.027603,58.992413 
	C202.451660,56.489376 208.018051,55.634819 210.791550,50.155735 
	C211.644730,50.501469 212.215836,51.034340 212.749619,52.128258 
	C212.667053,53.284191 212.621826,53.879078 212.576599,54.473957 
	C213.086029,54.255383 213.595474,54.036812 214.104904,53.818241 
	C219.770493,65.343452 213.629547,76.874916 200.197525,79.077065 
	C195.405518,79.862709 190.376541,79.202942 185.328522,79.202942 
	C184.046768,83.216080 185.942215,85.919922 188.793060,88.968681 
	C183.943771,91.006020 178.978699,92.397987 175.060410,93.496490 
	C174.416275,96.696823 174.067078,98.431839 173.717865,100.166862 
	C165.573242,97.173920 162.338318,90.367264 160.178467,82.358551 
	C161.630524,81.229538 163.525406,80.825226 164.449066,79.654610 
	C169.340027,73.455879 176.831543,73.216522 184.277924,70.966553 
	C195.693787,71.481377 198.165558,69.189667 198.027603,58.992413 
z"/>
<path fill="#60565E" opacity="1.000000" stroke="none" 
	d="
M100.468079,33.571499 
	C94.889374,36.652870 89.462341,39.211353 84.170235,42.023724 
	C80.717628,43.858532 77.462570,46.064693 74.116066,48.099636 
	C70.805855,50.112511 67.525703,52.178776 64.157997,54.090614 
	C63.209412,54.629128 61.999306,54.706974 60.533031,54.992149 
	C60.014816,52.517269 59.872715,50.046352 59.696377,46.980064 
	C54.200729,46.980064 48.813339,46.980064 43.278690,46.980064 
	C43.892075,40.604008 44.446026,34.845779 45.031616,28.758650 
	C63.635216,28.758650 82.003700,28.758650 100.879333,28.758650 
	C100.807205,30.326368 100.742111,31.741367 100.468079,33.571499 
z"/>
<path fill="#848D95" opacity="1.000000" stroke="none" 
	d="
M304.849152,80.018845 
	C302.674713,70.679825 304.272827,61.872917 309.233795,53.827503 
	C317.639984,40.194748 338.531342,39.542164 345.790375,50.622536 
	C346.127533,51.137211 346.772888,51.449978 347.721954,52.164032 
	C347.391235,55.334446 346.613312,58.197617 345.497620,60.906918 
	C337.244843,56.578751 332.454041,58.839451 329.483887,67.950043 
	C327.621338,68.072083 325.847443,67.784760 324.616608,68.471222 
	C317.953308,72.187477 311.424377,76.144676 304.849152,80.018845 
z"/>
<path fill="#838B94" opacity="1.000000" stroke="none" 
	d="
M348.141357,49.988186 
	C347.586334,37.917404 347.031311,25.846622 346.461426,13.452292 
	C355.445801,13.452292 364.169342,13.452292 372.752228,13.452292 
	C372.752228,22.631807 372.752228,31.841900 372.266754,41.516647 
	C369.205383,42.773441 366.616608,43.526291 364.056274,44.365864 
	C358.709198,46.119247 354.889954,52.193668 348.141357,49.988186 
z"/>
<path fill="#9AA9B2" opacity="1.000000" stroke="none" 
	d="
M460.324097,98.411499 
	C466.706451,101.237923 473.259583,100.365898 479.739624,99.083527 
	C480.918243,98.850281 482.673553,97.063232 482.668671,96.000328 
	C482.612274,83.732430 482.159393,71.467003 482.029907,59.198627 
	C481.895508,46.462273 482.291718,47.307590 470.309875,51.437267 
	C464.286011,53.513458 463.089691,57.142349 461.379822,61.919361 
	C460.730621,57.623211 460.461395,53.246201 460.648346,48.421513 
	C462.033478,47.493843 463.091583,47.165138 463.865814,46.503960 
	C465.778198,44.870853 467.292145,42.565800 469.443420,41.454823 
	C477.058655,37.522079 484.879333,33.987740 492.592957,30.242310 
	C492.892761,30.096724 492.893097,29.334421 493.032959,28.859486 
	C495.775757,28.608387 498.518555,28.357288 501.748810,28.061563 
	C501.278839,31.634594 500.899109,34.521465 500.007202,37.531555 
	C495.661591,35.675430 488.780853,39.061413 487.649597,43.489471 
	C491.962524,44.972359 496.377045,46.849327 498.454681,40.393539 
	C498.536041,40.140675 499.358337,40.126274 499.835419,40.000763 
	C499.681427,46.912582 499.681427,46.913120 492.909637,46.918041 
	C490.461823,46.919823 488.014008,46.918331 484.848053,46.918331 
	C484.848053,65.401199 484.848053,83.370010 484.848053,102.079201 
	C476.932648,102.079201 469.536560,102.164078 462.149994,101.937477 
	C461.470551,101.916641 460.852081,99.908394 460.324097,98.411499 
z"/>
<path fill="#90A0A8" opacity="1.000000" stroke="none" 
	d="
M492.669861,28.743849 
	C492.893097,29.334421 492.892761,30.096724 492.592957,30.242310 
	C484.879333,33.987740 477.058655,37.522079 469.443420,41.454823 
	C467.292145,42.565800 465.778198,44.870853 463.865814,46.503960 
	C463.091583,47.165138 462.033478,47.493843 460.744568,47.966133 
	C456.889801,47.601692 453.399506,47.187679 449.898254,46.912319 
	C448.140900,46.774109 446.363739,46.888226 444.028229,46.888226 
	C444.390320,42.225388 444.713593,38.062840 445.331268,33.436035 
	C445.867279,32.830414 446.108856,32.689045 446.350433,32.547676 
	C445.992218,32.356285 445.634003,32.164886 445.275787,31.973484 
	C444.511932,28.579268 446.385986,28.146599 449.168060,28.210640 
	C460.254608,28.465839 471.344086,28.604250 482.433014,28.739899 
	C485.723297,28.780148 489.015442,28.669641 492.669861,28.743849 
z"/>
<path fill="#8F9CA5" opacity="1.000000" stroke="none" 
	d="
M349.121277,96.992615 
	C349.014435,95.670105 348.907593,94.347595 348.727417,92.116814 
	C342.561371,103.113152 333.731567,106.149002 322.259613,102.192139 
	C324.694000,99.392075 327.388580,97.174210 330.087921,94.962189 
	C332.719910,92.805367 335.356781,90.654518 338.387390,88.405708 
	C343.510803,88.433739 346.585724,85.945580 349.145020,82.005501 
	C351.160187,81.380203 352.839264,80.887077 354.375305,80.110847 
	C360.286133,77.123795 366.151154,74.046135 372.033295,71.002281 
	C372.239258,75.034706 372.445190,79.067131 372.215851,83.555840 
	C364.227478,88.338966 356.674377,92.665794 349.121277,96.992615 
z"/>
<path fill="#8D9AA2" opacity="1.000000" stroke="none" 
	d="
M388.743988,72.116104 
	C387.680908,71.675240 386.602600,71.267563 385.557159,70.788231 
	C377.471985,67.081215 377.490265,67.080528 379.483521,58.071980 
	C380.549255,53.255325 381.547333,48.423706 382.689301,43.067150 
	C393.428375,45.138573 402.380371,49.689651 409.653320,58.073479 
	C402.668549,63.164310 395.706268,67.640205 388.743988,72.116104 
z"/>
<path fill="#838B94" opacity="1.000000" stroke="none" 
	d="
M268.119049,95.988342 
	C268.125336,89.629234 268.131622,83.270134 268.596008,76.450714 
	C271.720367,74.779434 274.368347,73.526237 277.056732,72.366638 
	C282.093292,70.194160 287.153259,68.075882 292.203491,65.935066 
	C292.388794,71.308083 292.574127,76.681091 292.313965,82.518982 
	C290.648438,83.401482 289.323975,83.636902 288.225433,84.266533 
	C281.494843,88.124191 274.815491,92.071136 268.119049,95.988342 
z"/>
<path fill="#91A1A9" opacity="1.000000" stroke="none" 
	d="
M388.951752,72.389847 
	C395.706268,67.640205 402.668549,63.164310 409.789246,58.389503 
	C415.620789,63.164993 418.361725,69.656822 419.150818,77.512589 
	C413.069397,80.610542 406.973572,83.295052 400.514740,85.982101 
	C396.487671,81.544296 392.823578,77.103943 388.951752,72.389847 
z"/>
<path fill="#69656D" opacity="1.000000" stroke="none" 
	d="
M131.047104,58.539993 
	C123.877159,60.367458 117.760063,63.695576 112.329041,68.400497 
	C111.288620,69.301826 110.172318,70.115540 108.748756,70.979897 
	C108.406494,62.566772 108.406494,54.143433 108.406494,45.353031 
	C115.800385,45.353031 123.147011,45.353031 131.106918,45.353031 
	C131.106918,49.590466 131.106918,53.833504 131.047104,58.539993 
z"/>
<path fill="#89939C" opacity="1.000000" stroke="none" 
	d="
M348.075500,50.299210 
	C354.889954,52.193668 358.709198,46.119247 364.056274,44.365864 
	C366.616608,43.526291 369.205383,42.773441 372.164429,41.971432 
	C372.399048,47.677963 372.250519,53.394367 371.666992,59.512897 
	C366.213135,58.035709 362.671326,61.724739 358.523590,63.215401 
	C355.411285,64.333946 352.167389,65.086372 348.805511,65.727859 
	C347.697754,63.989540 346.766571,62.525158 345.835388,61.060783 
	C346.613312,58.197617 347.391235,55.334446 348.056641,52.175591 
	C347.965942,51.456688 347.987823,51.033463 348.075500,50.299210 
z"/>
<path fill="#828992" opacity="1.000000" stroke="none" 
	d="
M227.058914,93.442566 
	C233.138351,89.175148 239.054962,85.216667 245.209641,81.671478 
	C246.453812,80.954819 248.598602,81.801720 250.709793,81.967529 
	C251.474274,88.439705 251.857132,94.872124 252.265198,101.728096 
	C243.618546,101.728096 235.586304,101.728096 226.980026,101.728096 
	C226.980026,99.097076 226.980026,96.497154 227.058914,93.442566 
z"/>
<path fill="#89939C" opacity="1.000000" stroke="none" 
	d="
M304.830383,80.430969 
	C311.424377,76.144676 317.953308,72.187477 324.616608,68.471222 
	C325.847443,67.784760 327.621338,68.072083 329.535706,68.411713 
	C330.277863,73.942123 330.628906,78.970779 330.616150,83.995033 
	C327.742432,83.104958 325.588226,83.233765 323.788300,85.611977 
	C323.070587,86.560257 321.744263,87.578041 320.654510,87.625008 
	C315.235260,87.858528 312.444641,90.697479 311.663483,95.861015 
	C307.240356,91.831024 305.440979,86.603951 304.830383,80.430969 
z"/>
<path fill="#91A1A9" opacity="1.000000" stroke="none" 
	d="
M439.156555,66.627655 
	C432.694550,63.007397 429.261719,70.019493 423.806580,70.884567 
	C423.397552,62.441807 423.397552,54.013050 423.397552,45.293194 
	C429.888641,45.293194 435.468811,45.293194 442.210175,45.293194 
	C441.223022,52.378223 440.256500,59.315094 439.156555,66.627655 
z"/>
<path fill="#73727A" opacity="1.000000" stroke="none" 
	d="
M108.029518,92.414886 
	C113.607109,89.302177 119.085381,86.589973 124.588196,83.928482 
	C126.729256,82.892944 128.925644,81.971809 131.475967,80.995651 
	C131.855118,87.769508 131.855118,94.546280 131.855118,101.742340 
	C124.330826,101.742340 116.156357,101.742340 107.940018,101.742340 
	C107.940018,98.710556 107.940018,95.773109 108.029518,92.414886 
z"/>
<path fill="#6D6971" opacity="1.000000" stroke="none" 
	d="
M60.060295,91.450386 
	C66.773163,88.115685 73.405380,85.240868 80.036064,82.362488 
	C81.057693,81.918999 82.072212,81.459129 83.451202,80.997940 
	C83.812386,87.763557 83.812386,94.538071 83.812386,101.735756 
	C76.065735,101.735756 68.248070,101.735756 59.979149,101.735756 
	C59.979149,98.432762 59.979149,95.170929 60.060295,91.450386 
z"/>
<path fill="#7C7F88" opacity="1.000000" stroke="none" 
	d="
M173.979599,100.429871 
	C174.067078,98.431839 174.416275,96.696823 175.060410,93.496490 
	C178.978699,92.397987 183.943771,91.006020 188.971680,89.263718 
	C196.377670,91.302284 202.951889,88.523712 209.625687,86.016548 
	C210.908127,85.534775 212.575851,86.078552 213.790894,86.678497 
	C212.401657,87.918991 211.042847,88.419411 210.215973,89.378448 
	C206.893280,93.232254 203.140808,95.525909 197.701920,95.248055 
	C195.799347,95.150856 193.780304,97.333076 192.168854,98.268623 
	C193.445496,100.786209 194.218796,102.311180 194.992096,103.836151 
	C187.808075,104.551727 180.844116,103.814438 173.979599,100.429871 
z"/>
<path fill="#89939C" opacity="1.000000" stroke="none" 
	d="
M268.044739,96.432800 
	C274.815491,92.071136 281.494843,88.124191 288.225433,84.266533 
	C289.323975,83.636902 290.648438,83.401482 292.224426,82.974632 
	C292.580353,89.054077 292.580353,95.142754 292.580353,101.688889 
	C284.733490,101.688889 276.614044,101.688889 267.970428,101.688889 
	C267.970428,100.062012 267.970428,98.469635 268.044739,96.432800 
z"/>
<path fill="#8A97A0" opacity="1.000000" stroke="none" 
	d="
M348.982086,66.001801 
	C352.167389,65.086372 355.411285,64.333946 358.523590,63.215401 
	C362.671326,61.724739 366.213135,58.035709 371.601715,59.956497 
	C372.031281,63.362492 372.091187,66.727013 372.092194,70.546906 
	C366.151154,74.046135 360.286133,77.123795 354.375305,80.110847 
	C352.839264,80.887077 351.160187,81.380203 349.198456,81.571640 
	C348.894104,76.093872 348.938080,71.047829 348.982086,66.001801 
z"/>
<path fill="#7E858F" opacity="1.000000" stroke="none" 
	d="
M292.253540,65.505661 
	C287.153259,68.075882 282.093292,70.194160 277.056732,72.366638 
	C274.368347,73.526237 271.720367,74.779434 268.689636,75.990646 
	C268.186188,73.296310 268.047241,70.601723 267.940613,67.458351 
	C269.274506,65.665436 271.103088,64.545647 271.787170,62.938652 
	C274.884735,55.661854 283.537689,52.222252 290.557190,55.948517 
	C291.388367,59.023148 291.845978,62.049698 292.253540,65.505661 
z"/>
<path fill="#90A0A8" opacity="1.000000" stroke="none" 
	d="
M349.057190,97.429794 
	C356.674377,92.665794 364.227478,88.338966 372.096252,83.991684 
	C372.967743,89.734138 373.523560,95.497040 374.158966,102.085312 
	C366.227814,102.085312 358.636444,102.202087 351.061676,101.901184 
	C350.319885,101.871719 349.680176,99.273079 349.057190,97.429794 
z"/>
<path fill="#8A97A0" opacity="1.000000" stroke="none" 
	d="
M311.776245,96.138107 
	C312.444641,90.697479 315.235260,87.858528 320.654510,87.625008 
	C321.744263,87.578041 323.070587,86.560257 323.788300,85.611977 
	C325.588226,83.233765 327.742432,83.104958 330.791870,84.294815 
	C333.551422,85.899673 335.771454,87.200356 337.991516,88.501045 
	C335.356781,90.654518 332.719910,92.805367 330.087921,94.962189 
	C327.388580,97.174210 324.694000,99.392075 321.939697,101.986588 
	C318.551056,100.382278 315.220001,98.398735 311.776245,96.138107 
z"/>
<path fill="#7C7F88" opacity="1.000000" stroke="none" 
	d="
M251.936417,52.700432 
	C248.759857,58.386684 244.458084,62.162941 239.010956,65.434074 
	C235.450302,67.572327 232.241440,69.523277 227.776367,69.997284 
	C227.407867,66.950127 227.422150,63.899815 227.930862,60.403652 
	C231.011292,59.015064 234.813950,58.831646 235.962311,56.991665 
	C239.900558,50.681503 245.696182,50.856617 251.742950,50.990509 
	C251.817108,51.445324 251.891281,51.900135 251.936417,52.700432 
z"/>
<path fill="#787982" opacity="1.000000" stroke="none" 
	d="
M251.827515,50.555065 
	C245.696182,50.856617 239.900558,50.681503 235.962311,56.991665 
	C234.813950,58.831646 231.011292,59.015064 228.096817,59.980247 
	C227.519104,55.263592 227.269882,50.524483 226.999298,45.379066 
	C235.431442,45.379066 243.400909,45.379066 251.912064,45.379066 
	C251.912064,46.957272 251.912064,48.538445 251.827515,50.555065 
z"/>
<path fill="#7E858F" opacity="1.000000" stroke="none" 
	d="
M195.421448,103.898193 
	C194.218796,102.311180 193.445496,100.786209 192.168854,98.268623 
	C193.780304,97.333076 195.799347,95.150856 197.701920,95.248055 
	C203.140808,95.525909 206.893280,93.232254 210.215973,89.378448 
	C211.042847,88.419411 212.401657,87.918991 213.841705,87.073082 
	C215.538528,90.408958 216.909607,93.879509 218.371048,97.578735 
	C211.189926,102.145798 203.651993,103.502235 195.421448,103.898193 
z"/>
<path fill="#97A8B1" opacity="1.000000" stroke="none" 
	d="
M499.915100,39.677219 
	C499.358337,40.126274 498.536041,40.140675 498.454681,40.393539 
	C496.377045,46.849327 491.962524,44.972359 487.649597,43.489471 
	C488.780853,39.061413 495.661591,35.675430 499.771057,37.840248 
	C500.029663,38.468376 500.012207,38.911026 499.915100,39.677219 
z"/>
<path fill="#9AA9B2" opacity="1.000000" stroke="none" 
	d="
M460.798676,69.344711 
	C461.171967,73.170601 461.337921,77.338348 461.185150,81.787003 
	C460.774750,77.940804 460.683075,73.813690 460.798676,69.344711 
z"/>
<path fill="#9AA9B2" opacity="1.000000" stroke="none" 
	d="
M460.652100,84.238693 
	C460.956482,85.534401 461.060455,87.138496 460.870300,88.859924 
	C460.534668,87.500526 460.493195,86.023811 460.652100,84.238693 
z"/>
<path fill="#9AA9B2" opacity="1.000000" stroke="none" 
	d="
M460.378418,92.399323 
	C460.681702,93.277206 460.860596,94.540840 460.752502,95.895615 
	C460.394958,94.919533 460.324463,93.852295 460.378418,92.399323 
z"/>
<path fill="#73727A" opacity="1.000000" stroke="none" 
	d="
M214.058212,53.553032 
	C213.595474,54.036812 213.086029,54.255383 212.576599,54.473957 
	C212.621826,53.879078 212.667053,53.284191 212.822601,52.419533 
	C213.292450,52.529114 213.651993,52.908470 214.058212,53.553032 
z"/>
<path fill="#9AA9B2" opacity="1.000000" stroke="none" 
	d="
M445.203369,32.230404 
	C445.634003,32.164886 445.992218,32.356285 446.350433,32.547676 
	C446.108856,32.689045 445.867279,32.830414 445.402161,32.995422 
	C445.162689,32.841816 445.146820,32.664570 445.203369,32.230404 
z"/>
<path fill="#FCFDFD" opacity="1.000000" stroke="none" 
	d="
M197.737427,58.749977 
	C198.165558,69.189667 195.693787,71.481377 184.684601,70.934906 
	C184.976746,67.691895 185.284637,64.316574 186.505875,61.312576 
	C188.428802,56.582535 192.756531,55.668491 197.737427,58.749977 
z"/>
<path fill="#FCFDFD" opacity="1.000000" stroke="none" 
	d="
M338.387390,88.405708 
	C335.771454,87.200356 333.551422,85.899673 331.155670,84.299210 
	C330.628906,78.970779 330.277863,73.942123 329.875000,68.451797 
	C332.454041,58.839451 337.244843,56.578751 345.497589,60.906914 
	C346.766571,62.525158 347.697754,63.989540 348.805511,65.727859 
	C348.938080,71.047829 348.894104,76.093872 348.796631,81.573769 
	C346.585724,85.945580 343.510803,88.433739 338.387390,88.405708 
z"/>
</svg>